<?xml version="1.0" standalone="no"?>
<!DOCTYPE svg PUBLIC "-//W3C//DTD SVG 20010904//EN"
 "http://www.w3.org/TR/2001/REC-SVG-20010904/DTD/svg10.dtd">
<svg version="1.0" xmlns="http://www.w3.org/2000/svg"
 width="512.000000pt" height="512.000000pt" viewBox="0 0 512.000000 512.000000"
 preserveAspectRatio="xMidYMid meet">

<g transform="translate(0.000000,512.000000) scale(0.100000,-0.100000)"
fill="#000000" stroke="none">
<path d="M2405 5109 c-131 -19 -320 -93 -433 -171 -76 -52 -206 -184 -261
-263 -65 -93 -113 -195 -147 -310 -36 -121 -45 -349 -20 -474 35 -172 117
-345 221 -467 l47 -54 -334 0 c-383 0 -426 -6 -558 -72 -161 -80 -292 -242
-335 -413 -20 -77 -19 -230 1 -309 56 -219 232 -399 454 -462 39 -11 118 -18
273 -21 119 -3 217 -8 217 -11 0 -3 -88 -303 -196 -666 -171 -576 -197 -672
-201 -746 -17 -307 202 -592 502 -655 282 -59 571 80 700 335 18 36 70 189
115 340 45 151 88 282 96 290 12 13 16 13 28 0 8 -8 51 -139 96 -290 45 -151
97 -304 115 -340 130 -256 417 -394 700 -335 337 71 567 424 490 755 -9 36
-40 148 -71 250 -47 158 -59 189 -86 214 -27 24 -37 27 -72 23 -51 -7 -86 -44
-86 -92 0 -18 9 -62 20 -97 11 -34 20 -68 20 -75 0 -23 -63 -84 -111 -108 -78
-40 -138 -41 -253 -6 -167 52 -313 39 -437 -40 -25 -16 -48 -29 -51 -29 -3 0
-20 52 -38 115 -18 64 -46 136 -61 160 -73 116 -243 136 -347 41 -35 -31 -56
-78 -92 -201 -18 -61 -34 -112 -36 -114 -2 -2 -25 10 -51 27 -126 80 -271 94
-439 41 -115 -35 -175 -34 -253 6 -46 23 -111 85 -111 106 0 5 79 276 176 601
189 635 189 637 137 678 -23 18 -40 20 -146 20 -109 0 -119 1 -114 18 4 9 15
43 27 76 45 126 36 252 -27 386 -66 139 -46 271 56 363 l41 37 205 0 205 0 0
-294 c0 -163 4 -306 10 -320 12 -33 55 -60 94 -60 18 0 58 16 93 37 l63 36 6
-27 c34 -138 171 -246 314 -246 132 0 256 87 300 211 l22 61 62 -36 c35 -20
74 -36 92 -36 39 0 82 27 94 60 6 14 10 157 10 320 l0 294 205 0 205 0 44 -40
c59 -55 90 -127 90 -210 0 -53 -6 -80 -36 -145 -67 -150 -74 -281 -23 -409 14
-34 25 -66 25 -69 0 -4 -53 -7 -119 -7 -104 0 -121 -2 -144 -20 -41 -33 -43
-73 -8 -191 35 -116 57 -146 114 -156 32 -5 41 -1 73 31 35 35 36 39 31 85
l-6 49 217 4 c239 6 292 16 417 81 90 47 212 174 257 267 57 116 71 185 66
320 -4 94 -10 128 -32 185 -60 157 -178 286 -322 356 -131 63 -174 69 -552 69
l-334 0 47 54 c102 120 185 293 219 459 21 100 21 304 0 405 -22 108 -73 237
-130 334 -57 95 -208 254 -299 315 -223 149 -481 209 -740 172z m355 -214
c100 -25 256 -105 334 -172 135 -113 236 -277 277 -448 18 -76 20 -110 16
-220 -4 -110 -9 -145 -35 -225 -49 -150 -142 -288 -257 -383 -35 -29 -169
-114 -299 -189 l-236 -136 -236 136 c-130 75 -264 160 -299 189 -120 98 -220
252 -266 408 -33 110 -37 304 -10 419 77 323 334 569 657 631 96 18 260 13
354 -10z m-1487 -1781 c-14 -31 -31 -90 -36 -131 -14 -97 -1 -176 49 -284 33
-72 39 -94 39 -154 0 -86 -35 -167 -96 -218 -38 -33 -40 -34 -97 -25 -137 21
-260 114 -323 243 -33 67 -34 74 -34 185 0 111 1 118 34 185 78 159 231 253
418 254 l72 1 -26 -56z m2740 41 c135 -35 238 -119 298 -240 33 -67 34 -74 34
-185 0 -110 -2 -118 -34 -185 -62 -127 -190 -223 -323 -243 -57 -9 -59 -8 -97
25 -61 51 -96 132 -96 218 0 60 6 82 39 154 67 147 72 287 13 415 l-26 56 67
0 c37 0 94 -7 125 -15z m-1553 -217 c0 -5 -167 -105 -247 -147 l-23 -12 0 160
0 160 135 -77 c74 -42 135 -80 135 -84z m468 -78 l-3 -80 -132 76 c-73 41
-133 78 -133 82 0 4 60 41 133 82 l132 76 3 -78 c2 -43 2 -114 0 -158z m-301
-150 c66 -40 66 -150 -1 -191 -67 -41 -155 -12 -177 59 -32 108 80 192 178
132z m-1113 -2037 c83 -29 221 -24 323 11 137 48 241 29 330 -60 l42 -42 -15
-48 c-53 -176 -186 -297 -358 -327 -271 -46 -526 190 -503 466 3 37 8 71 12
76 3 5 30 -6 61 -24 31 -19 80 -42 108 -52z m2273 1 c19 -226 -141 -427 -372
-467 -212 -36 -422 103 -489 325 -14 47 -14 47 19 85 45 53 116 86 193 91 51
4 79 -1 145 -24 70 -24 97 -29 182 -28 109 0 170 17 255 73 25 15 49 25 53 21
4 -4 11 -38 14 -76z"/>
<path d="M2165 4238 c-92 -50 -61 -188 43 -188 75 0 121 70 92 141 -21 49 -88
73 -135 47z"/>
<path d="M2861 4236 c-48 -27 -63 -84 -36 -136 31 -59 107 -69 156 -21 80 81
-20 212 -120 157z"/>
<path d="M2293 3863 c-36 -7 -73 -59 -73 -103 0 -33 7 -44 51 -84 160 -143
388 -150 565 -16 67 51 84 93 57 147 -13 26 -29 42 -55 51 -41 16 -61 9 -148
-53 -35 -24 -55 -30 -112 -33 -77 -5 -114 6 -170 49 -31 25 -85 52 -91 48 -1
-1 -12 -4 -24 -6z"/>
<path d="M2487 2060 c-91 -23 -169 -85 -215 -173 -23 -45 -27 -64 -27 -137 0
-73 4 -93 28 -142 30 -62 83 -115 149 -150 36 -19 58 -23 138 -23 80 0 102 4
138 23 66 35 119 88 149 150 24 49 28 69 28 142 0 73 -4 92 -27 137 -36 67
-90 120 -154 149 -58 27 -151 38 -207 24z m146 -220 c31 -25 51 -80 42 -120
-10 -45 -67 -90 -115 -90 -30 0 -48 8 -74 30 -40 36 -52 76 -36 125 17 50 53
75 110 75 32 0 55 -6 73 -20z"/>
<path d="M3567 1670 c-31 -25 -44 -79 -28 -118 14 -33 58 -62 96 -62 36 0 95
59 95 94 0 86 -98 137 -163 86z"/>
</g>
</svg>
